# xmcd
#
# Track frame offsets:
# 150
# 20934
# 41242
# 61169
# 71074
# 92482
# 113725
# 139315
# 159012
# 183859
#
# Disc length: 2702 seconds
#
# Revision: 0
# Processed by: cddbd v1.5.1PL0 Copyright (c) Steve Scherf et al.
# Submitted via: Audion 3.0.2 (http://www.panic.com/audion/)
#
DISCID=840a8c0a
DTITLE=Murder - One Year from Now It's My Birthday
DYEAR=1900
DGENRE=
TTITLE0=Kerosene and Rags
TTITLE1=Young Is Beautiful
TTITLE2=4th Floor
TTITLE3=A Trace of Blood
TTITLE4=Electric Leaves
TTITLE5=Swingers
TTITLE6=A Thousand Roads
TTITLE7=Checkout
TTITLE8=Kids
TTITLE9=Time
EXTD=
EXTT0=
EXTT1=
EXTT2=
EXTT3=
EXTT4=
EXTT5=
EXTT6=
EXTT7=
EXTT8=
EXTT9=
PLAYORDER=
